<?xml version="1.0" encoding="utf-8"?>
<!-- Generator: Adobe Illustrator 16.0.0, SVG Export Plug-In . SVG Version: 6.00 Build 0)  -->
<!DOCTYPE svg PUBLIC "-//W3C//DTD SVG 1.1//EN" "http://www.w3.org/Graphics/SVG/1.1/DTD/svg11.dtd">
<svg version="1.1" xmlns="http://www.w3.org/2000/svg" xmlns:xlink="http://www.w3.org/1999/xlink" x="0px" y="0px" width="1800px"
	 height="1440.862px" viewBox="0 0 1800 1440.862" enable-background="new 0 0 1800 1440.862" xml:space="preserve">
<g id="bg">
</g>
<g id="banner">
	<g>
		<g>
			<g>
				<linearGradient id="SVGID_1_" gradientUnits="userSpaceOnUse" x1="222.2163" y1="517.1802" x2="1508.248" y2="517.1802">
					<stop  offset="0" style="stop-color:#6A20FF"/>
					<stop  offset="0.4984" style="stop-color:#21ADFF"/>
					<stop  offset="1" style="stop-color:#85FFAD"/>
				</linearGradient>
				<path fill="url(#SVGID_1_)" d="M1351.606,978.466c-11.903-49.998-10.163-109.909,45.643-170.788
					c73.316-79.981,168.294-271.603,66.651-433.231c-101.643-161.629-221.614-209.951-351.584-188.289
					s-123.263,55.586-208.284,44.989c-120.076-14.966-212.523-127.406-286.6-158.296c-129.533-54.015-279.934-1.667-349.917,126.637
					s-46.231,222.054-12.906,280.374c33.325,58.32,106.593,94.626,109.55,144.526c5.984,100.984-93.312,221.614-116.639,289.932
					c-5.924,17.349-9.479,41.009-9.613,68.29c118.489-60.014,339.035-152.813,569.933-152.813
					C1033.487,829.797,1238.562,918.423,1351.606,978.466z"/>
				<linearGradient id="SVGID_2_" gradientUnits="userSpaceOnUse" x1="828.3916" y1="817.7881" x2="828.3916" y2="1429.2295">
					<stop  offset="0" style="stop-color:#D3DF4A"/>
					<stop  offset="0.2083" style="stop-color:#FFFF3F"/>
					<stop  offset="1" style="stop-color:#3BAB39"/>
				</linearGradient>
				<path fill="url(#SVGID_2_)" d="M352.495,1249.24c115.007,100.55,214.949,178.292,486.552,179.958
					c194.958,1.196,479.887-31.659,549.871-159.129s-1.666-191.386-23.328-247.74c-5.174-13.46-10.248-28.175-13.983-43.863
					c-113.045-60.043-318.119-160.678-543.767-160.678c-230.898,0-451.444,104.808-569.933,164.821
					C237.512,1062.758,266.694,1174.226,352.495,1249.24z"/>
			</g>
			<g>
				<defs>
					<path id="SVGID_3_" d="M1351.606,978.466c-11.903-49.998-10.163-109.909,45.643-170.788
						c73.316-79.981,168.294-271.603,66.651-433.231c-101.643-161.629-221.614-209.951-351.584-188.289
						s-123.263,55.586-208.284,44.989c-120.076-14.966-212.523-127.406-286.6-158.296
						c-129.533-54.015-279.934-1.667-349.917,126.637s-46.231,222.054-12.906,280.374c33.325,58.32,106.593,94.625,109.55,144.526
						c5.984,100.984-93.312,221.614-116.639,289.932c-5.924,17.349-9.479,41.009-9.613,68.29
						c-0.395,80.148,28.787,191.616,114.588,266.631c115.007,100.55,214.949,178.292,486.552,179.958
						c194.958,1.196,479.887-31.659,549.871-159.129s-1.666-191.386-23.328-247.74
						C1360.416,1008.869,1355.342,994.154,1351.606,978.466z"/>
				</defs>
				<clipPath id="SVGID_4_">
					<use xlink:href="#SVGID_3_"  overflow="visible"/>
				</clipPath>
				<g clip-path="url(#SVGID_4_)">
					<g>
						<rect x="656.063" y="360.824" fill="#FFFFFF" width="413.746" height="624.059"/>
						<rect x="683.702" y="378.49" fill="#EEEFF0" width="360.027" height="304.872"/>
						<rect x="683.702" y="667.707" fill="#E0E0E0" width="360.027" height="15.655"/>
						<g>
							<g>
								<path fill="#D8D8D8" d="M898.696,570.749h-66.047c-28.439,0-51.494,23.055-51.494,51.494v3.164H950.19v-3.164
									C950.19,593.804,927.136,570.749,898.696,570.749z"/>
								<g>
									<g>
										<path fill="#E89B84" d="M944.314,683.706v-39.225c0-7.174-5.816-12.99-12.99-12.99c-7.175,0-12.99,5.816-12.99,12.99
											v39.225H944.314z"/>
									</g>
									<path fill="#D8D8D8" d="M931.324,605.343c-10.42,0-18.866,8.447-18.866,18.866v29.36h37.732v-29.36
										C950.19,613.79,941.743,605.343,931.324,605.343z"/>
								</g>
								<g>
									<g>
										<path fill="#E89B84" d="M813.012,683.706v-39.225c0-7.174-5.816-12.99-12.99-12.99c-7.175,0-12.991,5.816-12.991,12.99
											v39.225H813.012z"/>
									</g>
									<path fill="#D8D8D8" d="M800.021,605.343L800.021,605.343c-10.42,0-18.866,8.447-18.866,18.866v29.36h37.732v-29.36
										C818.887,613.79,810.44,605.343,800.021,605.343z"/>
								</g>
							</g>
							<path fill="#EEEFF0" d="M898.718,573.361c-2.55-1.949-5.284-3.668-8.16-5.149c-7.461-3.84-15.917-6.018-24.886-6.018l0,0
								c-8.717,0-16.949,2.057-24.255,5.697c-2.872,1.431-5.604,3.098-8.16,4.993c-12.242,8.649-22.069,26.76-22.069,43.793v67.028
								h22.069h8.16h17.508h14.125h17.508h8.16h21.438v-67.028C920.156,600.721,909.648,583.325,898.718,573.361z"/>
							<g>
								<g>
									<g>
										<path fill="#EFA48D" d="M841.878,490c0,7.156-4.081,12.958-11.237,12.958s-12.958-5.801-12.958-12.958
											s3.048-12.958,10.205-12.958S841.878,482.844,841.878,490z"/>
										<path fill="#E29885" d="M836.799,490c0,4.731-2.115,8.567-6.846,8.567c-4.731,0-8.566-3.835-8.566-8.567
											s1.083-8.567,5.813-8.567C831.932,481.433,836.799,485.269,836.799,490z"/>
									</g>
									<g>
										<path fill="#EFA48D" d="M913.601,490c0,7.156-5.802,12.958-12.958,12.958c-7.156,0-11.237-5.801-11.237-12.958
											s6.833-12.958,13.99-12.958C910.553,477.042,913.601,482.844,913.601,490z"/>
										<path fill="#E29885" d="M909.898,490c0,4.731-3.836,8.567-8.567,8.567c-4.731,0-6.846-3.835-6.846-8.567
											s4.868-8.567,9.599-8.567C908.815,481.433,909.898,485.269,909.898,490z"/>
									</g>
								</g>
								<g>
									<path fill="#E89B84" d="M849.702,529.333v26.939c0,8.804,7.137,15.941,15.94,15.941h0c8.804,0,15.94-7.137,15.94-15.941
										v-26.939H849.702z"/>
									<g>
										<path fill="#D67569" d="M849.702,529.333v20.48c4.821,2.327,10.229,3.631,15.94,3.631h0c5.712,0,11.119-1.304,15.94-3.631
											v-20.48H849.702z"/>
									</g>
								</g>
								<path fill="#F9AA8E" d="M865.643,435.708L865.643,435.708c-20.281,0-36.722,16.441-36.722,36.721v39.476
									c0,20.281,16.441,36.721,36.721,36.721h0c20.28,0,36.721-16.44,36.721-36.721V472.43
									C902.363,452.149,885.923,435.708,865.643,435.708z"/>
								<path fill="#FFFFFF" d="M851.262,521.839c0.672,8.091,6.867,12.294,14.38,12.303c7.577,0.009,13.715-4.209,14.381-12.303
									H851.262z"/>
								<path fill="#E88D73" d="M858.58,507.156c1.086,2.844,3.837,4.864,7.062,4.864c3.226,0,5.976-2.021,7.063-4.864H858.58z"/>
								<path fill="#262626" d="M828.875,484.94c0,0,1.606-31.838,12.161-35.797c6.711-2.517,0.91,8.096-2.023,8.405
									c0,0,8.735,4.22,18.53-14.069c4.195-7.831,12.421-6.491,23.788-1.048c7.092,3.396,13.091,10.375,15.792,16.118
									c5.713,12.146,5.24,26.392,5.24,26.392s7.468-23.136,0.515-46.295c0,0,4.053-25.784-33.774-25.784
									c-33.195,0-34.202,26.71-34.202,26.71S818.376,437.541,828.875,484.94z"/>
								<g>
									<ellipse fill="#262626" cx="848.618" cy="488.316" rx="4.134" ry="5.539"/>
									<ellipse fill="#262626" cx="882.667" cy="488.316" rx="4.134" ry="5.539"/>
								</g>
								<path fill="#D8D8D8" d="M890.212,568.134l-24.57,13.404l-24.57-13.404l4.68-15.129l7.559,3.291
									c5.252,2.287,9.592,6.26,12.331,11.292l0,0h0c2.739-5.031,7.079-9.005,12.331-11.292l7.559-3.291L890.212,568.134z"/>
								<g>
									<path fill="#262626" d="M839.457,481.433c0.13-0.41,0.32-0.792,0.528-1.161c0.208-0.372,0.448-0.721,0.702-1.063
										c0.515-0.677,1.117-1.292,1.783-1.842c1.335-1.094,2.972-1.896,4.735-2.245c0.882-0.168,1.79-0.217,2.683-0.152
										c0.896,0.063,1.769,0.276,2.596,0.568c1.641,0.631,3.086,1.628,4.119,2.982c-0.429-0.07-0.824-0.177-1.219-0.267
										c-0.202-0.038-0.396-0.083-0.59-0.125c-0.098-0.02-0.192-0.045-0.287-0.068l-0.292-0.05l-0.569-0.111
										c-0.189-0.034-0.378-0.058-0.565-0.087c-0.371-0.07-0.744-0.093-1.107-0.14c-0.732-0.052-1.445-0.097-2.151-0.057
										c-0.705,0.036-1.398,0.115-2.087,0.243c-1.377,0.271-2.732,0.74-4.097,1.357
										C842.27,479.83,840.918,480.584,839.457,481.433z"/>
									<path fill="#262626" d="M891.888,481.433c-1.461-0.849-2.812-1.603-4.182-2.22c-1.364-0.617-2.72-1.085-4.097-1.357
										c-0.689-0.128-1.383-0.207-2.087-0.243c-0.706-0.04-1.418,0.005-2.151,0.057c-0.363,0.047-0.736,0.07-1.107,0.14
										c-0.187,0.029-0.376,0.054-0.565,0.087l-0.569,0.111l-0.292,0.05c-0.095,0.022-0.189,0.048-0.287,0.068
										c-0.195,0.042-0.389,0.088-0.59,0.125c-0.396,0.089-0.79,0.196-1.219,0.267c1.033-1.354,2.478-2.351,4.119-2.982
										c0.827-0.292,1.701-0.505,2.596-0.568c0.894-0.065,1.801-0.016,2.683,0.152c1.764,0.35,3.401,1.151,4.735,2.245
										c0.667,0.551,1.268,1.166,1.783,1.842c0.254,0.341,0.495,0.69,0.702,1.063
										C891.568,480.642,891.758,481.023,891.888,481.433z"/>
								</g>
							</g>
						</g>
						<g>
							<rect x="756.885" y="699.015" fill="#E0E0E0" width="212.101" height="15.654"/>
							<rect x="682.922" y="730.322" fill="#E0E0E0" width="87.917" height="15.653"/>
							<rect x="790.667" y="730.322" fill="#E0E0E0" width="129.401" height="15.653"/>
							<rect x="939.896" y="730.322" fill="#E0E0E0" width="103.054" height="15.653"/>
							<rect x="682.922" y="761.628" fill="#E0E0E0" width="43.044" height="15.653"/>
							<rect x="745.272" y="761.628" fill="#E0E0E0" width="96.007" height="15.653"/>
							<rect x="861.629" y="761.628" fill="#E0E0E0" width="121.574" height="15.653"/>
							<rect x="1004.074" y="761.628" fill="#E0E0E0" width="38.875" height="15.653"/>
							<rect x="921.633" y="792.935" fill="#E0E0E0" width="121.316" height="15.654"/>
							<rect x="799.537" y="792.935" fill="#E0E0E0" width="103.313" height="15.654"/>
							<rect x="682.922" y="792.935" fill="#E0E0E0" width="94.179" height="15.654"/>
							<rect x="757.273" y="824.242" fill="#E0E0E0" width="84.006" height="15.653"/>
							<rect x="682.922" y="824.242" fill="#E0E0E0" width="55.567" height="15.653"/>
							<rect x="863.194" y="824.242" fill="#E0E0E0" width="116.356" height="15.653"/>
							<rect x="999.378" y="824.242" fill="#E0E0E0" width="43.571" height="15.653"/>
							<rect x="682.922" y="855.549" fill="#E0E0E0" width="100.962" height="15.653"/>
							<rect x="807.886" y="855.549" fill="#E0E0E0" width="106.442" height="15.653"/>
							<rect x="934.156" y="855.549" fill="#E0E0E0" width="108.793" height="15.653"/>
							<rect x="744.75" y="886.855" fill="#E0E0E0" width="97.573" height="15.653"/>
							<rect x="682.922" y="886.855" fill="#E0E0E0" width="45.653" height="15.653"/>
							<rect x="863.194" y="886.855" fill="#E0E0E0" width="106.964" height="15.653"/>
							<rect x="987.899" y="886.855" fill="#E0E0E0" width="55.05" height="15.653"/>
							<rect x="682.922" y="918.162" fill="#E0E0E0" width="106.18" height="15.653"/>
							<rect x="808.407" y="918.162" fill="#E0E0E0" width="124.184" height="15.653"/>
							<rect x="949.287" y="918.162" fill="#E0E0E0" width="93.662" height="15.653"/>
							<rect x="682.922" y="949.469" fill="#E0E0E0" width="55.045" height="15.653"/>
							<rect x="759.36" y="949.469" fill="#E0E0E0" width="97.051" height="15.653"/>
							<rect x="876.239" y="949.469" fill="#E0E0E0" width="98.616" height="15.653"/>
							<rect x="995.726" y="949.469" fill="#E0E0E0" width="47.224" height="15.653"/>
						</g>
					</g>
					<g opacity="0.5">
						<g>
							<rect x="1112.598" y="360.824" fill="#FFFFFF" width="413.746" height="624.059"/>
							<rect x="1140.238" y="378.49" fill="#EEEFF0" width="360.026" height="304.872"/>
							<rect x="1140.238" y="667.707" fill="#E0E0E0" width="360.026" height="15.655"/>
							<g>
								<rect x="1213.421" y="699.015" fill="#E0E0E0" width="212.101" height="15.654"/>
								<rect x="1139.457" y="730.322" fill="#E0E0E0" width="87.918" height="15.653"/>
								<rect x="1247.202" y="730.322" fill="#E0E0E0" width="129.401" height="15.653"/>
								<rect x="1396.431" y="730.322" fill="#E0E0E0" width="103.054" height="15.653"/>
								<rect x="1139.457" y="761.628" fill="#E0E0E0" width="43.045" height="15.653"/>
								<rect x="1201.808" y="761.628" fill="#E0E0E0" width="96.008" height="15.653"/>
								<rect x="1318.164" y="761.628" fill="#E0E0E0" width="121.574" height="15.653"/>
								<rect x="1460.609" y="761.628" fill="#E0E0E0" width="38.875" height="15.653"/>
								<rect x="1378.169" y="792.935" fill="#E0E0E0" width="121.315" height="15.654"/>
								<rect x="1256.072" y="792.935" fill="#E0E0E0" width="103.313" height="15.654"/>
								<rect x="1139.457" y="792.935" fill="#E0E0E0" width="94.18" height="15.654"/>
								<rect x="1213.809" y="824.242" fill="#E0E0E0" width="84.007" height="15.653"/>
								<rect x="1139.457" y="824.242" fill="#E0E0E0" width="55.567" height="15.653"/>
								<rect x="1319.729" y="824.242" fill="#E0E0E0" width="116.356" height="15.653"/>
								<rect x="1455.914" y="824.242" fill="#E0E0E0" width="43.57" height="15.653"/>
								<rect x="1139.457" y="855.549" fill="#E0E0E0" width="100.962" height="15.653"/>
								<rect x="1264.421" y="855.549" fill="#E0E0E0" width="106.443" height="15.653"/>
								<rect x="1390.691" y="855.549" fill="#E0E0E0" width="108.793" height="15.653"/>
								<rect x="1201.286" y="886.855" fill="#E0E0E0" width="97.572" height="15.653"/>
								<rect x="1139.457" y="886.855" fill="#E0E0E0" width="45.654" height="15.653"/>
								<rect x="1319.729" y="886.855" fill="#E0E0E0" width="106.965" height="15.653"/>
								<rect x="1444.435" y="886.855" fill="#E0E0E0" width="55.05" height="15.653"/>
								<rect x="1139.457" y="918.162" fill="#E0E0E0" width="106.181" height="15.653"/>
								<rect x="1264.943" y="918.162" fill="#E0E0E0" width="124.183" height="15.653"/>
								<rect x="1405.823" y="918.162" fill="#E0E0E0" width="93.661" height="15.653"/>
								<rect x="1139.457" y="949.469" fill="#E0E0E0" width="55.046" height="15.653"/>
								<rect x="1215.896" y="949.469" fill="#E0E0E0" width="97.051" height="15.653"/>
								<rect x="1332.774" y="949.469" fill="#E0E0E0" width="98.616" height="15.653"/>
								<rect x="1452.262" y="949.469" fill="#E0E0E0" width="47.223" height="15.653"/>
							</g>
							<g>
								<path fill="#FB5D13" d="M1407.794,582.924c-1.054-8.345-7.21-11.69-13.165-14.924c-5.799-3.15-11.275-6.125-12.205-13.488
									s3.618-11.745,8.434-16.384c4.945-4.764,10.058-9.689,9.004-18.035c-1.053-8.345-7.21-11.689-13.164-14.924
									c-5.799-3.15-11.276-6.125-12.206-13.488s0.021-11.745,4.835-16.384c4.945-4.764,10.058-9.689,9.005-18.035
									c-1.054-8.345-7.211-11.689-13.165-14.923c-4.17-2.265-4.573-4.439-6.84-8.219c0,0-7.334-31.494-46.179-31.494
									c-38.274,0-46.179,31.494-46.179,31.494c-2.266,3.78-2.67,5.955-6.839,8.219c-5.954,3.234-12.111,6.579-13.165,14.923
									c-1.054,8.345,4.06,13.271,9.004,18.035c4.815,4.64,5.765,9.021,4.835,16.384c-0.929,7.363-6.406,10.338-12.205,13.488
									c-5.954,3.234-12.111,6.579-13.165,14.924s4.06,13.271,9.004,18.035c4.815,4.64,9.363,9.021,8.435,16.384
									c-0.93,7.363-6.407,10.338-12.206,13.488c-5.954,3.234-12.111,6.579-13.165,14.924c-1.054,8.346,4.06,13.272,9.004,18.036
									c3.822,3.683,7.473,7.204,8.353,12.181h1.88h132.821h1.879c0.881-4.977,4.531-8.499,8.353-12.181
									C1403.734,596.196,1408.848,591.27,1407.794,582.924z"/>
								<g>
									<path fill="#D8D8D8" d="M1343.22,556.521h-42.145c-27.592,0-60.821,27.446-60.821,57.217h163.788
										C1404.042,583.966,1370.813,556.521,1343.22,556.521z"/>
									<g>
										<g>
											<path fill="#E89B84" d="M1397.891,683.362v-49.657c0-7.51-6.088-13.599-13.598-13.599
												c-7.511,0-13.599,6.088-13.599,13.599v49.657H1397.891z"/>
										</g>
										<path fill="#D8D8D8" d="M1384.678,592.738c-11.072-0.212-20.135,9.062-20.135,20.136v10.595
											c0,10.907,8.842,19.75,19.75,19.75l0,0c10.906,0,19.749-8.842,19.749-19.75v-10.985
											C1404.042,601.706,1395.407,592.943,1384.678,592.738z"/>
									</g>
									<g>
										<g>
											<path fill="#E89B84" d="M1273.602,683.362v-49.657c0-7.51-6.089-13.599-13.599-13.599
												c-7.511,0-13.599,6.088-13.599,13.599v49.657H1273.602z"/>
										</g>
										<path fill="#D8D8D8" d="M1260.003,592.734L1260.003,592.734c-10.907,0-19.749,8.842-19.749,19.75v10.985
											c0,10.907,8.842,19.75,19.749,19.75l0,0c10.907,0,19.749-8.842,19.749-19.75v-10.985
											C1279.752,601.577,1270.91,592.734,1260.003,592.734z"/>
									</g>
									<path fill="#EEEFF0" d="M1364.237,683.362c9.784-29.709,18.262-52.795,16.472-84.718
										c-0.687-14.205-9.387-26.928-20.316-36.061c-11.097-9.139-24.423-14.688-38.245-14.698l0,0
										c-13.821,0.01-27.147,5.559-38.245,14.698c-10.93,9.133-19.629,21.856-20.315,36.061
										c-1.79,31.923,6.687,55.009,16.471,84.718H1364.237z"/>
								</g>
								<g>
									<g>
										<g>
											<g>
												<path fill="#EFA48D" d="M1301.145,472.718c0,7.459-4.253,13.506-11.712,13.506s-13.506-6.047-13.506-13.506
													c0-7.458,3.178-13.505,10.637-13.505C1294.021,459.212,1301.145,465.259,1301.145,472.718z"/>
												<path fill="#E29885" d="M1295.851,472.718c0,4.932-2.204,8.929-7.136,8.929c-4.931,0-8.929-3.998-8.929-8.929
													c0-4.931,1.128-8.929,6.06-8.929S1295.851,467.787,1295.851,472.718z"/>
											</g>
											<g>
												<path fill="#EFA48D" d="M1368.368,472.718c0,7.459-6.047,13.506-13.505,13.506c-7.459,0-11.713-6.047-11.713-13.506
													c0-7.458,7.123-13.505,14.582-13.505S1368.368,465.259,1368.368,472.718z"/>
												<path fill="#E29885" d="M1364.509,472.718c0,4.932-3.997,8.929-8.929,8.929s-7.136-3.998-7.136-8.929
													c0-4.931,5.074-8.929,10.005-8.929C1363.381,463.789,1364.509,467.787,1364.509,472.718z"/>
											</g>
										</g>
										<g>
											<path fill="#E89B84" d="M1307.89,516.884v24.096c0,7.874,6.384,14.258,14.258,14.258l0,0
												c7.875,0,14.258-6.384,14.258-14.258v-24.096H1307.89z"/>
											<g>
												<path fill="#D67569" d="M1307.89,516.884v17.063c4.313,2.081,9.149,3.248,14.258,3.248l0,0
													c5.109,0,9.946-1.167,14.258-3.248v-17.063H1307.89z"/>
											</g>
										</g>
										<path fill="#F9AA8E" d="M1322.147,416.13L1322.147,416.13c-21.138,0-38.274,17.136-38.274,38.274v41.146
											c0,21.138,17.137,38.274,38.274,38.274l0,0c21.139,0,38.274-17.136,38.274-38.274v-41.146
											C1360.422,433.267,1343.286,416.13,1322.147,416.13z"/>
										<path fill="#DB4F0F" d="M1360.422,470.152c0.104-1.434,0.203-9.918,0.294-11.352l0.226-4.301
											c0.157-2.902-0.051-5.839-0.583-8.726c-0.538-2.885-1.413-5.721-2.608-8.427l-0.473-1.003
											c-0.163-0.332-0.308-0.675-0.489-0.997l-0.529-0.977l-0.266-0.489l-0.288-0.476l-0.576-0.952
											c-0.189-0.32-0.409-0.619-0.612-0.93c-0.21-0.307-0.411-0.62-0.628-0.921l-0.67-0.891
											c-0.436-0.604-0.928-1.162-1.399-1.738c-0.232-0.292-0.49-0.56-0.74-0.836l-0.755-0.824
											c-0.261-0.267-0.527-0.527-0.793-0.789l-0.398-0.393l-0.199-0.196l-0.209-0.187l-0.834-0.747
											c-0.14-0.124-0.277-0.25-0.419-0.372l-0.435-0.354c-2.301-1.906-4.83-3.541-7.51-4.884
											c-2.687-1.333-5.536-2.335-8.458-3.026c-2.926-0.681-5.93-1.021-8.932-1.035c-3.002,0.011-6.005,0.355-8.932,1.032
											c-2.922,0.691-5.771,1.696-8.459,3.025c-2.68,1.346-5.211,2.978-7.512,4.885l-0.435,0.353
											c-0.142,0.122-0.279,0.248-0.419,0.372l-0.834,0.747l-0.208,0.187l-0.199,0.196l-0.399,0.393
											c-0.265,0.263-0.533,0.521-0.793,0.788l-0.755,0.825c-0.25,0.276-0.508,0.545-0.74,0.836
											c-0.472,0.576-0.965,1.134-1.399,1.738l-0.671,0.891c-0.217,0.302-0.419,0.614-0.628,0.921
											c-0.203,0.311-0.423,0.61-0.612,0.93l-0.576,0.952l-0.288,0.476l-0.266,0.489l-0.528,0.978
											c-0.091,0.161-0.173,0.327-0.252,0.495l-0.238,0.501l-0.473,1.003c-1.195,2.707-2.07,5.543-2.608,8.429
											c-0.532,2.887-0.738,5.824-0.581,8.727l0.227,4.301c0.092,1.434,0.168,2.868,0.272,4.301c0,0,15.397-13.704,18.583-28.818
											c0,0,11.466,9.798,33.168,9.259C1355.76,443.042,1360.422,470.152,1360.422,470.152z"/>
										<path fill="#FFFFFF" d="M1307.133,507.186c0.525,8.697,7.06,13.219,15.015,13.229c8.022,0.01,14.495-4.53,15.015-13.229
											H1307.133z"/>
										<path fill="#E88D73" d="M1314.787,490.6c1.132,2.964,3.999,5.07,7.36,5.07c3.362,0,6.229-2.106,7.361-5.07H1314.787z"/>
										<g>
											<ellipse fill="#262626" cx="1304.403" cy="470.963" rx="4.31" ry="5.773"/>
											<ellipse fill="#262626" cx="1339.892" cy="470.963" rx="4.31" ry="5.773"/>
										</g>
										<path fill="#D8D8D8" d="M1348.117,554.157l-25.609,13.834l-25.609-13.834l4.878-15.769l3.942,1.47
											c6.802,2.536,12.661,7.097,16.789,13.068l0,0l0,0c4.128-5.971,9.988-10.532,16.79-13.068l3.941-1.47L1348.117,554.157z"/>
										<g>
											<path fill="#DB4F0F" d="M1296.746,463.421c0.126-0.397,0.311-0.767,0.512-1.125c0.201-0.36,0.434-0.698,0.681-1.029
												c0.499-0.656,1.081-1.251,1.728-1.785c1.293-1.061,2.879-1.836,4.588-2.175c0.855-0.163,1.734-0.211,2.601-0.147
												c0.867,0.061,1.714,0.268,2.515,0.55c1.591,0.611,2.99,1.578,3.991,2.89c-0.415-0.068-0.798-0.172-1.181-0.258
												c-0.195-0.037-0.384-0.082-0.572-0.122c-0.094-0.02-0.186-0.044-0.278-0.066l-0.282-0.049l-0.552-0.108
												c-0.183-0.033-0.366-0.057-0.547-0.084c-0.359-0.068-0.722-0.09-1.073-0.136c-0.71-0.051-1.4-0.093-2.084-0.055
												c-0.683,0.035-1.354,0.111-2.023,0.235c-1.334,0.263-2.647,0.717-3.969,1.314
												C1299.471,461.867,1298.162,462.598,1296.746,463.421z"/>
											<path fill="#DB4F0F" d="M1347.549,463.421c-1.415-0.823-2.725-1.554-4.052-2.151c-1.322-0.598-2.636-1.052-3.97-1.314
												c-0.668-0.124-1.34-0.2-2.022-0.235c-0.685-0.038-1.375,0.004-2.085,0.055c-0.352,0.046-0.714,0.068-1.072,0.136
												c-0.181,0.028-0.364,0.052-0.548,0.084l-0.552,0.108l-0.282,0.049c-0.092,0.021-0.184,0.046-0.278,0.066
												c-0.188,0.04-0.377,0.085-0.571,0.122c-0.384,0.086-0.766,0.19-1.182,0.258c1.001-1.312,2.4-2.278,3.991-2.89
												c0.801-0.282,1.647-0.49,2.516-0.55c0.865-0.063,1.745-0.016,2.6,0.147c1.709,0.339,3.295,1.115,4.589,2.175
												c0.646,0.534,1.229,1.129,1.728,1.785c0.246,0.331,0.479,0.669,0.68,1.029
												C1347.239,462.654,1347.424,463.023,1347.549,463.421z"/>
										</g>
									</g>
								</g>
							</g>
						</g>
						<g>
							<rect x="199.527" y="360.824" fill="#FFFFFF" width="413.746" height="624.059"/>
							<rect x="227.167" y="378.49" fill="#EEEFF0" width="360.027" height="304.872"/>
							<rect x="227.167" y="667.707" fill="#E0E0E0" width="360.027" height="15.655"/>
							<g>
								<g>
									<path fill="#D8D8D8" d="M441.849,564.45H372.32c-29.938,0-54.208,24.27-54.208,54.208v3.331h177.946v-3.331
										C496.058,588.72,471.787,564.45,441.849,564.45z"/>
									<g>
										<g>
											<path fill="#E89B84" d="M489.872,683.362v-41.292c0-7.553-6.123-13.675-13.675-13.675s-13.675,6.123-13.675,13.675
												v41.292H489.872z"/>
										</g>
										<path fill="#D8D8D8" d="M476.197,600.868c-10.969,0-19.861,8.892-19.861,19.86v30.908h39.722v-30.908
											C496.058,609.76,487.166,600.868,476.197,600.868z"/>
									</g>
									<g>
										<g>
											<path fill="#E89B84" d="M351.647,683.362v-41.292c0-7.553-6.123-13.675-13.675-13.675
												c-7.552,0-13.675,6.123-13.675,13.675v41.292H351.647z"/>
										</g>
										<path fill="#D8D8D8" d="M337.972,600.868L337.972,600.868c-10.968,0-19.86,8.892-19.86,19.86v30.908h39.721v-30.908
											C357.833,609.76,348.94,600.868,337.972,600.868z"/>
									</g>
								</g>
								<path fill="#EEEFF0" d="M441.872,567.2c-2.685-2.051-5.562-3.861-8.59-5.42c-7.854-4.042-16.756-6.335-26.198-6.335l0,0
									c-9.176,0-17.843,2.165-25.534,5.997c-3.022,1.506-5.899,3.261-8.59,5.256c-12.887,9.105-23.232,28.17-23.232,46.102v70.563
									h23.232h8.59h18.431h14.869h18.431h8.59h22.568v-70.563C464.44,596.002,453.379,577.689,441.872,567.2z"/>
								<g>
									<g>
										<g>
											<path fill="#EFA48D" d="M382.036,479.444c0,7.534-4.296,13.641-11.83,13.641s-13.641-6.107-13.641-13.641
												c0-7.533,3.209-13.641,10.743-13.641C374.842,465.803,382.036,471.911,382.036,479.444z"/>
											<path fill="#E29885" d="M376.689,479.444c0,4.981-2.226,9.019-7.207,9.019c-4.98,0-9.018-4.038-9.018-9.019
												c0-4.98,1.139-9.018,6.12-9.018C371.564,470.426,376.689,474.463,376.689,479.444z"/>
										</g>
										<g>
											<path fill="#EFA48D" d="M457.539,479.444c0,7.534-6.107,13.641-13.641,13.641c-7.534,0-11.829-6.107-11.829-13.641
												c0-7.533,7.194-13.641,14.727-13.641C454.33,465.803,457.539,471.911,457.539,479.444z"/>
											<path fill="#E29885" d="M453.641,479.444c0,4.981-4.038,9.019-9.018,9.019c-4.981,0-7.207-4.038-7.207-9.019
												c0-4.98,5.125-9.018,10.105-9.018C452.502,470.426,453.641,474.463,453.641,479.444z"/>
										</g>
									</g>
									<g>
										<path fill="#E89B84" d="M390.271,520.851v28.36c0,9.268,7.513,16.781,16.781,16.781h0c9.268,0,16.781-7.513,16.781-16.781
											v-28.36H390.271z"/>
										<g>
											<path fill="#D67569" d="M390.271,520.851v21.561c5.076,2.449,10.768,3.823,16.781,3.823h0
												c6.013,0,11.705-1.374,16.781-3.823v-21.561H390.271z"/>
										</g>
									</g>
									<path fill="#F9AA8E" d="M407.053,418.38L407.053,418.38c-21.35,0-38.658,17.307-38.658,38.657v45.467
										c0,21.35,17.308,38.657,38.657,38.657h0c21.35,0,38.657-17.307,38.657-38.657v-45.467
										C445.709,435.688,428.402,418.38,407.053,418.38z"/>
									<path fill="#262626" d="M368.363,481.726c0.651,3.425,1.161,6.851,1.626,10.276c0.473,3.426,0.875,6.851,1.244,10.276
										l0.069,0.643l0.033,0.319l0.041,0.296l0.161,1.181c0.024,0.196,0.052,0.392,0.094,0.586l0.107,0.583l0.105,0.582
										c0.035,0.193,0.067,0.387,0.117,0.578c0.188,0.765,0.336,1.531,0.567,2.278c0.111,0.375,0.201,0.751,0.326,1.12
										l0.366,1.104c0.111,0.37,0.264,0.727,0.4,1.088l0.208,0.539c0.068,0.18,0.132,0.36,0.214,0.535
										c0.312,0.704,0.6,1.412,0.958,2.09l0.251,0.514l0.125,0.257l0.138,0.25l0.551,1c0.087,0.168,0.187,0.331,0.289,0.491
										l0.298,0.485c0.199,0.322,0.383,0.652,0.604,0.961l0.633,0.939c0.214,0.31,0.451,0.605,0.67,0.911l0.333,0.455
										c0.111,0.151,0.236,0.293,0.353,0.439l0.709,0.874l0.747,0.839l0.371,0.42l0.392,0.401
										c0.262,0.266,0.517,0.538,0.782,0.799l0.814,0.764c0.263,0.262,0.551,0.499,0.832,0.742
										c0.285,0.238,0.554,0.493,0.849,0.718l0.874,0.685l0.217,0.173l0.226,0.161l0.45,0.323c0.589,0.445,1.22,0.83,1.834,1.234
										c0.308,0.2,0.632,0.376,0.946,0.567l0.473,0.281c0.157,0.095,0.324,0.173,0.485,0.261l0.971,0.515l0.992,0.471l0.494,0.237
										l0.506,0.211l1.01,0.423l1.029,0.372c0.171,0.062,0.34,0.131,0.513,0.188l0.521,0.164c0.348,0.107,0.692,0.225,1.042,0.326
										l1.056,0.276c0.35,0.101,0.707,0.171,1.062,0.248c0.356,0.074,0.708,0.162,1.066,0.228l1.076,0.178
										c0.18,0.027,0.357,0.067,0.539,0.085l0.542,0.061c0.362,0.038,0.721,0.092,1.083,0.127l1.088,0.077
										c0.182,0.012,0.363,0.03,0.544,0.038l0.547,0.01l1.092,0.025l1.093-0.027l0.546-0.01c0.182-0.007,0.363-0.026,0.544-0.038
										l1.088-0.077c0.362-0.036,0.722-0.088,1.083-0.13l0.542-0.062c0.181-0.018,0.359-0.058,0.538-0.085l1.076-0.178
										c0.357-0.065,0.71-0.153,1.065-0.228l0.533-0.115c0.178-0.036,0.352-0.093,0.528-0.136l1.056-0.276
										c0.35-0.101,0.694-0.219,1.042-0.326l0.521-0.164c0.173-0.057,0.341-0.126,0.513-0.188
										c0.341-0.128,0.684-0.251,1.028-0.374l1.01-0.423l0.506-0.211l0.494-0.237l0.991-0.473l0.971-0.514
										c0.161-0.088,0.328-0.166,0.485-0.261l0.473-0.281c0.313-0.19,0.637-0.366,0.945-0.567
										c0.612-0.407,1.244-0.789,1.833-1.234l0.45-0.323l0.226-0.161l0.217-0.172c0.288-0.231,0.579-0.46,0.873-0.687
										c0.294-0.225,0.563-0.48,0.848-0.718c0.281-0.243,0.569-0.479,0.832-0.741l0.813-0.765c0.266-0.26,0.52-0.533,0.782-0.798
										l0.392-0.401l0.371-0.419l0.746-0.84l0.709-0.873c0.117-0.146,0.242-0.288,0.353-0.439l0.333-0.454
										c0.22-0.305,0.454-0.602,0.668-0.912l0.634-0.938c0.221-0.309,0.404-0.638,0.604-0.961l0.296-0.485
										c0.102-0.161,0.201-0.323,0.289-0.491l0.551-0.999l0.138-0.25l0.125-0.257l0.25-0.514c0.357-0.678,0.647-1.385,0.958-2.089
										c0.082-0.175,0.146-0.355,0.214-0.535l0.208-0.539c0.137-0.36,0.29-0.717,0.401-1.087l0.365-1.104
										c0.125-0.369,0.215-0.746,0.326-1.12c0.232-0.747,0.379-1.512,0.568-2.277c0.05-0.191,0.082-0.384,0.117-0.578l0.106-0.581
										l0.107-0.583c0.04-0.194,0.069-0.39,0.094-0.586l0.162-1.18l0.041-0.296l0.034-0.319l0.069-0.643
										c0.369-3.425,0.774-6.851,1.249-10.276c0.467-3.425,0.979-6.851,1.635-10.276c0.656,3.425,1.168,6.851,1.635,10.276
										c0.476,3.426,0.88,6.851,1.249,10.276l0.069,0.643l0.032,0.323l0.025,0.346l0.097,1.388
										c0.043,0.465,0.03,0.929,0.042,1.395l0.009,0.7c0.003,0.234,0.008,0.468-0.005,0.701c-0.036,0.933-0.06,1.874-0.166,2.807
										c-0.049,0.467-0.079,0.939-0.147,1.405l-0.212,1.4c-0.063,0.47-0.168,0.93-0.26,1.395c-0.099,0.463-0.181,0.932-0.303,1.39
										c-0.242,0.917-0.468,1.844-0.773,2.747l-0.221,0.681l-0.111,0.341l-0.125,0.335l-0.507,1.342
										c-0.082,0.226-0.175,0.446-0.272,0.665l-0.289,0.658c-0.196,0.437-0.38,0.882-0.603,1.307
										c-3.325,6.936-8.751,12.925-15.396,17.082l-1.256,0.767c-0.426,0.242-0.861,0.469-1.293,0.704l-0.649,0.348l-0.664,0.319
										l-1.333,0.632l-1.362,0.568c-0.229,0.091-0.455,0.19-0.685,0.276l-0.695,0.248c-0.465,0.163-0.927,0.334-1.395,0.487
										l-1.416,0.426c-3.79,1.098-7.742,1.6-11.675,1.631c-3.932-0.035-7.884-0.537-11.672-1.638l-1.416-0.426
										c-0.468-0.153-0.93-0.324-1.395-0.487l-0.695-0.248c-0.231-0.085-0.457-0.184-0.685-0.276l-1.361-0.57l-1.332-0.632
										l-0.664-0.319l-0.649-0.348c-0.432-0.233-0.865-0.463-1.292-0.706l-1.255-0.766c-6.644-4.157-12.063-10.147-15.388-17.08
										c-0.833-1.729-1.557-3.506-2.127-5.326c-0.305-0.902-0.532-1.829-0.773-2.746c-0.124-0.458-0.203-0.927-0.303-1.39
										c-0.092-0.465-0.198-0.924-0.261-1.394l-0.212-1.399c-0.067-0.466-0.098-0.938-0.147-1.405
										c-0.108-0.933-0.129-1.873-0.166-2.806c-0.013-0.233-0.008-0.467-0.005-0.7l0.008-0.7c0.01-0.466-0.001-0.93,0.042-1.394
										l0.096-1.388l0.024-0.346l0.032-0.323l0.069-0.643c0.368-3.425,0.77-6.851,1.244-10.276
										C367.203,488.577,367.712,485.151,368.363,481.726z"/>
									<path fill="#FFFFFF" d="M391.915,512.961c0.707,8.518,7.228,12.943,15.138,12.952c7.976,0.009,14.438-4.432,15.139-12.952
										H391.915z"/>
									<path fill="#E88D73" d="M399.618,497.505c1.144,2.994,4.04,5.121,7.435,5.121c3.395,0,6.291-2.127,7.434-5.121H399.618z"/>
									<g>
										<ellipse fill="#262626" cx="389.131" cy="477.672" rx="4.353" ry="5.831"/>
										<ellipse fill="#262626" cx="424.974" cy="477.672" rx="4.353" ry="5.831"/>
									</g>
									<path fill="#D8D8D8" d="M432.918,561.697l-25.865,14.111l-25.866-14.111l4.927-15.927l7.957,3.464
										c5.529,2.408,10.098,6.59,12.982,11.887l0,0l0,0c2.884-5.296,7.452-9.479,12.981-11.887l7.958-3.464L432.918,561.697z"/>
									<g>
										<path fill="#262626" d="M379.487,470.426c0.137-0.432,0.337-0.833,0.556-1.223c0.218-0.392,0.471-0.759,0.739-1.119
											c0.542-0.712,1.175-1.36,1.877-1.939c1.405-1.152,3.128-1.995,4.985-2.363c0.929-0.177,1.884-0.229,2.824-0.16
											c0.943,0.065,1.862,0.291,2.733,0.597c1.728,0.664,3.249,1.715,4.336,3.14c-0.451-0.074-0.867-0.187-1.283-0.281
											c-0.212-0.04-0.417-0.088-0.621-0.132c-0.103-0.021-0.202-0.048-0.303-0.071l-0.307-0.053l-0.599-0.117
											c-0.199-0.035-0.398-0.061-0.595-0.092c-0.39-0.074-0.784-0.098-1.166-0.147c-0.771-0.055-1.521-0.102-2.265-0.06
											c-0.742,0.038-1.472,0.121-2.198,0.255c-1.449,0.286-2.876,0.779-4.313,1.428
											C382.447,468.738,381.025,469.532,379.487,470.426z"/>
										<path fill="#262626" d="M434.682,470.426c-1.538-0.894-2.96-1.688-4.403-2.337c-1.436-0.649-2.863-1.143-4.313-1.428
											c-0.726-0.135-1.456-0.217-2.198-0.255c-0.743-0.042-1.493,0.005-2.264,0.06c-0.382,0.049-0.776,0.074-1.166,0.147
											c-0.196,0.031-0.396,0.057-0.595,0.092l-0.599,0.117l-0.307,0.053c-0.101,0.023-0.2,0.05-0.303,0.071
											c-0.205,0.044-0.409,0.093-0.621,0.132c-0.416,0.094-0.832,0.207-1.283,0.281c1.087-1.425,2.608-2.476,4.336-3.14
											c0.871-0.307,1.79-0.532,2.733-0.597c0.941-0.069,1.896-0.017,2.825,0.16c1.857,0.368,3.58,1.211,4.985,2.363
											c0.702,0.58,1.335,1.227,1.877,1.939c0.268,0.36,0.521,0.727,0.739,1.119
											C434.345,469.592,434.545,469.994,434.682,470.426z"/>
									</g>
									<path fill="#262626" d="M407.084,526.874L407.084,526.874c-3.504,0-6.344,2.84-6.344,6.344v6.344h12.688v-6.344
										C413.428,529.714,410.588,526.874,407.084,526.874z"/>
									<g>
										<path fill="#262626" d="M401.381,510.821h-15.704l14.094-6.926c2.426-1.192,5.26,0.573,5.26,3.276l0,0
											C405.032,509.187,403.397,510.821,401.381,510.821z"/>
										<path fill="#262626" d="M412.787,510.821h15.704l-14.094-6.926c-2.425-1.192-5.26,0.573-5.26,3.276l0,0
											C409.137,509.187,410.771,510.821,412.787,510.821z"/>
									</g>
									<path fill="#262626" d="M447.764,448.83c-0.26-3.178-0.96-6.351-2.04-9.419c-0.526-1.542-1.196-3.032-1.912-4.509
										c-0.183-0.368-0.386-0.723-0.579-1.085c-0.2-0.358-0.384-0.729-0.6-1.078l-0.642-1.056l-0.327-0.526l-0.348-0.511
										c-1.84-2.742-4.028-5.277-6.507-7.519c-1.256-1.099-2.546-2.175-3.935-3.121c-0.345-0.238-0.688-0.482-1.038-0.715
										l-1.069-0.671c-0.708-0.457-1.457-0.842-2.193-1.254c-5.952-3.18-12.756-4.839-19.523-4.85
										c-6.769,0.004-13.575,1.661-19.529,4.839c-0.736,0.412-1.485,0.798-2.194,1.254l-1.069,0.669
										c-0.35,0.232-0.693,0.477-1.038,0.715c-1.388,0.946-2.681,2.02-3.937,3.121c-2.481,2.24-4.669,4.778-6.511,7.52
										l-0.348,0.511l-0.327,0.526l-0.643,1.055c-0.216,0.35-0.399,0.72-0.6,1.079c-0.193,0.363-0.396,0.719-0.58,1.085
										c-0.715,1.479-1.387,2.969-1.912,4.512c-1.08,3.069-1.78,6.244-2.039,9.423l-0.071,1.192
										c-0.024,0.396-0.051,0.791-0.043,1.188c0.006,0.794-0.025,1.58,0.04,2.368l0.068,1.175c0.024,0.39,0.083,0.781,0.124,1.168
										c0.046,0.388,0.086,0.777,0.14,1.158l0.177,1.105c0.467,2.946,0.979,5.893,1.634,8.839c0,0-3.176-38.983,38.633-38.983
										s38.681,38.983,38.681,38.983c0.652-2.946,1.161-5.893,1.626-8.839l0.175-1.105c0.053-0.381,0.094-0.771,0.14-1.158
										c0.041-0.388,0.099-0.778,0.124-1.168l0.067-1.175C447.929,452.005,447.878,450.421,447.764,448.83z"/>
								</g>
							</g>
							<g>
								<rect x="300.35" y="699.015" fill="#E0E0E0" width="212.101" height="15.654"/>
								<rect x="226.386" y="730.322" fill="#E0E0E0" width="87.917" height="15.653"/>
								<rect x="334.131" y="730.322" fill="#E0E0E0" width="129.401" height="15.653"/>
								<rect x="483.36" y="730.322" fill="#E0E0E0" width="103.053" height="15.653"/>
								<rect x="226.386" y="761.628" fill="#E0E0E0" width="43.044" height="15.653"/>
								<rect x="288.737" y="761.628" fill="#E0E0E0" width="96.007" height="15.653"/>
								<rect x="405.093" y="761.628" fill="#E0E0E0" width="121.574" height="15.653"/>
								<rect x="547.539" y="761.628" fill="#E0E0E0" width="38.875" height="15.653"/>
								<rect x="465.098" y="792.935" fill="#E0E0E0" width="121.315" height="15.654"/>
								<rect x="343.001" y="792.935" fill="#E0E0E0" width="103.312" height="15.654"/>
								<rect x="226.386" y="792.935" fill="#E0E0E0" width="94.179" height="15.654"/>
								<rect x="300.737" y="824.242" fill="#E0E0E0" width="84.006" height="15.653"/>
								<rect x="226.386" y="824.242" fill="#E0E0E0" width="55.567" height="15.653"/>
								<rect x="406.659" y="824.242" fill="#E0E0E0" width="116.356" height="15.653"/>
								<rect x="542.843" y="824.242" fill="#E0E0E0" width="43.57" height="15.653"/>
								<rect x="226.386" y="855.549" fill="#E0E0E0" width="100.962" height="15.653"/>
								<rect x="351.35" y="855.549" fill="#E0E0E0" width="106.443" height="15.653"/>
								<rect x="477.621" y="855.549" fill="#E0E0E0" width="108.792" height="15.653"/>
								<rect x="288.215" y="886.855" fill="#E0E0E0" width="97.573" height="15.653"/>
								<rect x="226.386" y="886.855" fill="#E0E0E0" width="45.653" height="15.653"/>
								<rect x="406.659" y="886.855" fill="#E0E0E0" width="106.964" height="15.653"/>
								<rect x="531.364" y="886.855" fill="#E0E0E0" width="55.049" height="15.653"/>
								<rect x="226.386" y="918.162" fill="#E0E0E0" width="106.18" height="15.653"/>
								<rect x="351.872" y="918.162" fill="#E0E0E0" width="124.184" height="15.653"/>
								<rect x="492.752" y="918.162" fill="#E0E0E0" width="93.661" height="15.653"/>
								<rect x="226.386" y="949.469" fill="#E0E0E0" width="55.045" height="15.653"/>
								<rect x="302.825" y="949.469" fill="#E0E0E0" width="97.051" height="15.653"/>
								<rect x="419.703" y="949.469" fill="#E0E0E0" width="98.616" height="15.653"/>
								<rect x="539.19" y="949.469" fill="#E0E0E0" width="47.223" height="15.653"/>
							</g>
						</g>
					</g>
				</g>
			</g>
			<g>
				<defs>
					<path id="SVGID_5_" d="M352.495,1249.24c115.007,100.55,214.949,178.292,486.552,179.958
						c194.958,1.196,479.887-31.659,549.871-159.129s-1.666-191.386-23.328-247.74c-5.174-13.46-10.248-28.175-13.983-43.863
						c-116.43-240.339-297.567-461.286-523.214-461.286c-230.898,0-471.996,405.416-590.485,465.429
						C237.512,1062.758,266.694,1174.226,352.495,1249.24z"/>
				</defs>
				<clipPath id="SVGID_6_">
					<use xlink:href="#SVGID_5_"  overflow="visible"/>
				</clipPath>
				<g clip-path="url(#SVGID_6_)">
					<circle opacity="0.25" fill="#FFFFFF" cx="1125.002" cy="766.817" r="52.776"/>
					<circle fill="#FFFFFF" cx="1125.002" cy="766.817" r="30.48"/>
				</g>
				<g clip-path="url(#SVGID_6_)">
					<g>
						<linearGradient id="SVGID_7_" gradientUnits="userSpaceOnUse" x1="1084.0322" y1="888.5664" x2="1219.1436" y2="888.5664">
							<stop  offset="0.0012" style="stop-color:#EFAD9C"/>
							<stop  offset="1" style="stop-color:#FF7F9B"/>
						</linearGradient>
						<path fill="url(#SVGID_7_)" d="M1127.982,1022.329l-0.173-54.986c0,0-33.087-7.611-37.53-47.028
							c-4.444-39.416-12.775-68.3,2.776-68.855c15.553-0.556,19.441,31.105,19.441,31.105s0-99.241,0.37-106.276
							c0.37-7.036,0.783-21.484,12.405-21.484c11.038,0,11.294,14.818,11.664,21.854s2.593,65.729,2.593,65.729
							s3.703-9.628,13.33-8.887c9.628,0.74,14.257,10.738,14.257,10.738s3.967-8.593,13.595-7.111
							c9.628,1.48,14.733,15.443,14.733,15.443s13.331-8.518,19.256,5.184s5.925,73.32,0,87.021s-15.553,22.958-15.553,22.958
							l2.222,48.14L1127.982,1022.329z"/>
						<path fill="#FFFFFF" d="M1115.83,1032.48l3.61-41.603c0,0,18.607-14.72,45.269-14.72c26.662,0,44.947,16.941,44.947,16.941
							l3.933,39.381H1115.83z"/>
						<linearGradient id="SVGID_8_" gradientUnits="userSpaceOnUse" x1="1084.0156" y1="1219.7305" x2="1257.4873" y2="1219.7305">
							<stop  offset="0" style="stop-color:#492F63"/>
							<stop  offset="1" style="stop-color:#031D57"/>
						</linearGradient>
						<path fill="url(#SVGID_8_)" d="M1106.789,1012.63c0,0-27.364,218.339-22.102,428.232h172.8c0,0-22.882-369.3-37.03-428.232
							C1220.457,1012.63,1165.729,981.059,1106.789,1012.63z"/>
					</g>
					<g>
						<linearGradient id="SVGID_9_" gradientUnits="userSpaceOnUse" x1="725.4551" y1="791.5254" x2="988.7266" y2="791.5254">
							<stop  offset="0.0012" style="stop-color:#EFAD9C"/>
							<stop  offset="1" style="stop-color:#FF7F9B"/>
						</linearGradient>
						<path fill="url(#SVGID_9_)" d="M922.736,943.108c0,0,65.99-45.452,65.99-198.749c0-153.297-131.636-154.408-131.636-154.408
							s-131.636,1.11-131.636,154.408c0,153.297,65.99,198.749,65.99,198.749l-8.887,49.991h74.533h74.532L922.736,943.108
							L922.736,943.108z"/>
						<linearGradient id="SVGID_10_" gradientUnits="userSpaceOnUse" x1="731.0669" y1="687.0747" x2="997.6789" y2="800.2448">
							<stop  offset="0" style="stop-color:#414042"/>
							<stop  offset="1" style="stop-color:#000000"/>
						</linearGradient>
						<path fill="url(#SVGID_10_)" d="M860.321,576.551c-69.84,1.72-136.641,59.312-136.641,183.954
							c0,123.996,84.037,139.78,136.641,140.369c52.604-0.589,136.642-16.373,136.642-140.369
							C996.963,635.863,930.161,578.271,860.321,576.551z"/>
						<path fill="#FFFFFF" d="M950.526,976.764c-72.272-19.349-114.599-19.349-186.871,0l-30.649,71.746l124.084-6.617
							l124.084,6.617L950.526,976.764z"/>
						<g>
							<linearGradient id="SVGID_11_" gradientUnits="userSpaceOnUse" x1="524.6089" y1="1440.8623" x2="524.6089" y2="1099.2764">
								<stop  offset="0" style="stop-color:#1F006E"/>
								<stop  offset="1" style="stop-color:#792FEB"/>
							</linearGradient>
							<path fill="url(#SVGID_11_)" d="M480.392,1440.862h88.433v-341.586C568.825,1099.276,480.392,1218.749,480.392,1440.862z"/>
							<linearGradient id="SVGID_12_" gradientUnits="userSpaceOnUse" x1="857.0903" y1="1012.6299" x2="857.0903" y2="1440.8623">
								<stop  offset="0" style="stop-color:#492F63"/>
								<stop  offset="1" style="stop-color:#031D57"/>
							</linearGradient>
							<path fill="url(#SVGID_12_)" d="M857.091,1012.63c-159.962,0-288.266,86.646-288.266,86.646v341.586h576.531v-341.586
								C1145.356,1099.276,1017.053,1012.63,857.091,1012.63z"/>
							
								<linearGradient id="SVGID_13_" gradientUnits="userSpaceOnUse" x1="1104.5635" y1="1417.3105" x2="1252.4744" y2="1161.1213">
								<stop  offset="0" style="stop-color:#1F006E"/>
								<stop  offset="1" style="stop-color:#792FEB"/>
							</linearGradient>
							<path fill="url(#SVGID_13_)" d="M1233.789,1440.862h-88.433v-341.586C1145.356,1099.276,1233.789,1218.749,1233.789,1440.862
								z"/>
						</g>
						<path opacity="0.31" fill="#0B0C0F" d="M496.506,1282.578c-9.547,44.927-16.114,97.789-16.114,158.284h88.433h576.531h88.433
							c0-55.438-5.51-104.479-13.777-146.868C1005.675,1397.539,660.756,1375.878,496.506,1282.578z"/>
					</g>
				</g>
			</g>
			<g>
				<linearGradient id="SVGID_14_" gradientUnits="userSpaceOnUse" x1="1408.5527" y1="934.3281" x2="1649.5273" y2="934.3281">
					<stop  offset="0" style="stop-color:#21ADFF"/>
					<stop  offset="1" style="stop-color:#85FFAD"/>
				</linearGradient>
				<path fill="url(#SVGID_14_)" d="M1522.505,1119.015l-9.982-0.012c0,0,5.737-28.992-8.038-39.467
					c-13.774-10.474-82.19-46.681-82.633-75.681c-0.443-28.999,27.605-29.443,34.741-33.714s6.194-12.828-1.88-19.018
					c-8.075-6.189-60.793-51.887-42.225-76.586c18.568-24.7,44.088,4.328,53.183,1.961c9.095-2.366,8.981-7.596,0.023-20.441
					c-8.959-12.846-28.413-45.67-15.563-58.967s32.316,9.069,37.074,5.746c4.758-3.322,5.766-53.713,45.698-53.192
					c39.932,0.521,27.025,63.258,29.868,72.294c2.842,9.035,9.022,8.566,18.539,0.972c9.517-7.596,29.013-11.853,34.226,2.415
					c5.214,14.268-13.835,43.245-29.058,52.261s-7.628,19.007-2.397,18.063c5.23-0.945,22.364-18.04,43.752-13.737
					s25.637,30.454,18.492,43.281c-7.146,12.828-67.551,39.857-62.813,53.174c4.739,13.316,27.58-6.624,37.091-8.991
					c9.511-2.365,17.584,5.725,16.62,16.658c-0.963,10.933-19.542,45.615-67.578,64.103
					C1518.254,1069.914,1522.505,1119.015,1522.505,1119.015z"/>
				<path fill="#3B717A" d="M1527.719,961.45l65.371-43.298l-65.235,39.152l0.352-10.768l1.706-48.33l63.261-54.366l-63.097,49.743
					l1.178-33.373l1.285-40.183l15.992-16.171l-15.865,12.228l1.351-42.213l-0.57-0.025l-2.549,43.602l-0.042,0.717l-2.451,41.917
					l-0.993,18.005l-45.468-45.781l45.207,50.51l-3.503,63.516l-0.052,0.886l-75.479-48.726l75.248,52.733l-2.21,38.226
					c-0.687,11.859-1.25,23.724-1.701,35.593l-44.821-32.062l44.67,36.165c-0.041,1.149-0.088,2.298-0.127,3.446l-0.641,21.588
					c-0.156,7.198-0.368,14.394-0.465,21.595c-0.255,14.398-0.398,28.803-0.232,43.222l0.57,0.025
					c1.467-14.344,2.624-28.702,3.67-43.066c0.554-7.18,0.992-14.365,1.486-21.549l1.148-18.889l57.822-31.482l-57.592,27.536
					c0.781-13.948,1.399-27.903,1.854-41.866L1527.719,961.45z"/>
			</g>
			<g>
				
					<linearGradient id="SVGID_15_" gradientUnits="userSpaceOnUse" x1="729.1655" y1="105.7803" x2="1079.2002" y2="105.7803" gradientTransform="matrix(0.9973 0.0729 -0.0729 0.9973 5.8047 -64.6915)">
					<stop  offset="0" style="stop-color:#6A20FF"/>
					<stop  offset="0.4984" style="stop-color:#21ADFF"/>
					<stop  offset="1" style="stop-color:#85FFAD"/>
				</linearGradient>
				<path fill="url(#SVGID_15_)" d="M1073.986,124.856c0,0-30.45-2.701-34.076-28.292c-5.178-36.542-94.946-86.03-196.777-57.917
					c-82.633,22.813-117.12,45.42-117.12,45.42s114.721,95.36,198.355,101.689c75.907,5.744,100.042-19.609,108.005-40.281
					c5.685-14.757,38.628-7.634,38.628-7.634L1073.986,124.856z"/>
				<path fill="#2A4F7C" d="M806.28,95.988l-9.289-1.638l-4.644-0.819l-4.633-0.899l-9.255-1.835l-9.191-2.209l0.168-0.622
					l9.215,1.845l9.3,1.478l4.647,0.742l4.663,0.666l9.325,1.331c12.443,1.708,24.898,3.34,37.367,4.879
					c4.624,0.594,9.25,1.176,13.876,1.758l-33.467-37.527l39.482,38.286c18.3,2.283,36.611,4.482,54.928,6.635l3.628,0.417
					l-40.519-50.142l46.068,50.781l9.545,1.099l18.732,2.073c12.389,1.369,24.751,2.934,37.094,4.658L972.279,91.69l-12.762-15.269
					c-4.274-5.072-8.491-10.195-12.857-15.186c4.615,4.767,9.086,9.67,13.612,14.521l13.52,14.606l25.3,27.419l13.186,1.917
					c6.21,0.962,12.428,1.869,18.631,2.891c12.415,1.982,29.717,4.185,42.08,6.609l-0.635,2.76c-12.586-0.592-29.472-3.78-42-4.874
					c-3.416-0.278-6.826-0.599-10.236-0.927l-62.143,28.307l55.024-28.991c-0.475-0.045-0.949-0.091-1.424-0.136l-18.753-1.963
					c-12.494-1.372-24.96-2.978-37.401-4.765l-12.748-1.86l-53.384,29.787l47.55-30.638l-18.733-2.733
					c-14.607-2.097-29.21-4.229-43.807-6.405l-46.885,21.376l40.421-22.343c-8.113-1.218-16.225-2.446-24.333-3.701
					C831.082,100.146,818.675,98.106,806.28,95.988z"/>
			</g>
			<g>
				
					<linearGradient id="SVGID_16_" gradientUnits="userSpaceOnUse" x1="90.8501" y1="701.4189" x2="299.8477" y2="701.4189" gradientTransform="matrix(0.9952 -0.0982 0.0982 0.9952 -65.1277 20.4141)">
					<stop  offset="0" style="stop-color:#6A20FF"/>
					<stop  offset="0.9132" style="stop-color:#21ADFF"/>
				</linearGradient>
				<path fill="url(#SVGID_16_)" d="M301.918,697.794c0.788-17.893-3.88-38.252-3.88-38.252s-28.817,24.35-35.49,13.596
					c-6.673-10.754,29.704-32.125,29.704-32.125c-3.039-12.98-9.791-21.945-9.791-21.945s-12.969,10.928-18.027,3.386
					c-5.059-7.542,8.458-19.683,8.458-19.683c-1.491-15.273-11.48-34.68-11.48-34.68c-25.736,8.004-54.562,28.335-54.562,28.335
					s12.255,46.856,2.049,52.316c-10.206,5.461-18.474-46.017-18.474-46.017c-17.971,7.103-33.428,20.66-33.428,20.66
					s23.457,51.031,3.394,58.186c-11.611,4.14-23.358-45.474-23.358-45.474c-18.868,23.737-27.021,41.823-27.021,41.823
					s28.528,51.875,15.849,57.433s-28.813-23.582-28.813-23.582c-8.443,73.27,52.064,95.455,61.136,100.25
					c67.539,35.693,113.067-23.119,113.067-23.119s-28.67,5.291-27.662-6.954c1.009-12.246,42.688-22.257,42.688-22.257
					c6.307-6.201,9.911-25.642,9.911-25.642c-27.128,2.12-37.46,1.16-38.597-5.047C255.081,715.288,301.918,697.794,301.918,697.794
					z"/>
				<path fill="#323960" d="M97.435,895.871c4.746-5.644,9.352-11.521,13.853-17.428c4.499-5.923,8.905-11.919,13.235-17.971
					c8.647-12.114,16.955-24.475,24.972-37.021c8.011-12.552,15.726-25.295,23.13-38.219c7.38-12.938,14.447-26.054,21.227-39.319
					l5.009-9.987c1.658-3.335,3.239-6.708,4.862-10.061l2.419-5.037l2.331-5.078c1.545-3.39,3.128-6.762,4.642-10.166
					c2.971-6.832,6.02-13.632,8.815-20.54l2.139-5.163l1.07-2.582l1.022-2.6l4.072-10.41l1.018-2.603l0.964-2.623l1.928-5.246
					l1.928-5.247l0.964-2.624l0.909-2.643l3.628-10.575l0.907-2.644c0.3-0.882,0.57-1.774,0.856-2.661l1.695-5.327
					c4.626-14.175,8.561-28.562,12.35-42.984c-3.645,14.458-7.437,28.89-11.924,43.118l-1.643,5.347
					c-0.278,0.89-0.539,1.785-0.83,2.671l-0.881,2.655l-3.525,10.619l-0.883,2.654l-0.938,2.635l-1.877,5.271l-1.877,5.271
					l-0.939,2.636l-0.993,2.615l-3.973,10.462l-0.998,2.614l-1.045,2.595l-2.09,5.19c-2.729,6.945-5.714,13.784-8.622,20.657
					c-1.481,3.424-3.034,6.817-4.547,10.228l-2.284,5.11l-2.373,5.069c-1.592,3.374-3.143,6.77-4.77,10.127l-4.919,10.057
					c-6.659,13.359-13.61,26.574-20.879,39.616c-7.293,13.027-14.9,25.882-22.809,38.55c-7.914,12.664-16.125,25.146-24.684,37.395
					c-4.286,6.119-8.651,12.184-13.113,18.182l-3.371,4.481l-3.416,4.449c-2.298,2.959-4.606,5.881-7.02,8.796L97.435,895.871z"/>
			</g>
		</g>
		<g>
			<circle fill="#FFFFFF" cx="584.008" cy="281.902" r="34.068"/>
			<polygon fill="#FFFFFF" points="746.343,266.905 721.903,266.905 721.903,242.465 691.909,242.465 691.909,266.905 
				667.469,266.905 667.469,296.9 691.909,296.9 691.909,321.34 721.903,321.34 721.903,296.9 746.343,296.9 			"/>
			<polygon fill="#FFFFFF" points="562.33,186.583 595.657,135.481 628.984,186.583 			"/>
			<g>
				<linearGradient id="SVGID_17_" gradientUnits="userSpaceOnUse" x1="154.6279" y1="242.4653" x2="293.4224" y2="242.4653">
					<stop  offset="0" style="stop-color:#21ADFF"/>
					<stop  offset="1" style="stop-color:#6A20FF"/>
				</linearGradient>
				<path fill="url(#SVGID_17_)" d="M293.422,159.915H154.628v165.102h69.771c4.778-37.303,17.822-79.157,43.116-125.528
					C275.22,185.362,283.902,172.159,293.422,159.915z"/>
				<path fill="#FFFFFF" d="M412.908,372.78l24.834-47.764h53.86V159.915h-198.18c-9.52,12.244-18.202,25.447-25.907,39.573
					c-25.293,46.371-38.337,88.226-43.116,125.528h163.742L412.908,372.78z"/>
			</g>
			<g>
				<g>
					<path fill="#FFFFFF" d="M235.46,214.545c-15.42,0-27.92,12.5-27.92,27.92s12.5,27.92,27.92,27.92
						c0.425,0,0.847-0.014,1.268-0.032c4.849-15.162,11.05-30.929,18.791-47.299C250.443,217.81,243.335,214.545,235.46,214.545z"/>
					<linearGradient id="SVGID_18_" gradientUnits="userSpaceOnUse" x1="236.728" y1="246.7041" x2="263.3809" y2="246.7041">
						<stop  offset="0" style="stop-color:#21ADFF"/>
						<stop  offset="1" style="stop-color:#6A20FF"/>
					</linearGradient>
					<path fill="url(#SVGID_18_)" d="M263.381,242.465c0-7.545-2.999-14.387-7.862-19.411c-7.74,16.37-13.942,32.138-18.791,47.299
						C251.559,269.69,263.381,257.46,263.381,242.465z"/>
				</g>
				<linearGradient id="SVGID_19_" gradientUnits="userSpaceOnUse" x1="291.6011" y1="242.4658" x2="347.4414" y2="242.4658">
					<stop  offset="0" style="stop-color:#21ADFF"/>
					<stop  offset="1" style="stop-color:#6A20FF"/>
				</linearGradient>
				<circle fill="url(#SVGID_19_)" cx="319.521" cy="242.465" r="27.92"/>
				<linearGradient id="SVGID_20_" gradientUnits="userSpaceOnUse" x1="375.6616" y1="242.4658" x2="431.502" y2="242.4658">
					<stop  offset="0" style="stop-color:#21ADFF"/>
					<stop  offset="1" style="stop-color:#6A20FF"/>
				</linearGradient>
				<circle fill="url(#SVGID_20_)" cx="403.582" cy="242.465" r="27.92"/>
			</g>
		</g>
		<g>
			<linearGradient id="SVGID_21_" gradientUnits="userSpaceOnUse" x1="1344.458" y1="392.8242" x2="1656.9844" y2="392.8242">
				<stop  offset="0" style="stop-color:#21ADFF"/>
				<stop  offset="1" style="stop-color:#85FFAD"/>
			</linearGradient>
			<path fill="url(#SVGID_21_)" d="M1656.984,395.062c0-107.614-87.238-194.852-194.853-194.852
				c-44.212,0-84.977,14.733-117.674,39.547c42.024,30.956,81.979,75.118,119.442,134.69
				c43.101,68.538,50.843,142.467,39.878,210.992C1591.379,566.363,1656.984,488.381,1656.984,395.062z"/>
			<path fill="#FFFFFF" d="M1463.9,374.447c-37.463-59.572-77.418-103.734-119.442-134.69
				c-46.89,35.583-77.179,91.903-77.179,155.305c0,107.614,87.239,194.853,194.853,194.853c14.296,0,28.227-1.554,41.646-4.476
				C1514.743,516.914,1507.001,442.984,1463.9,374.447z"/>
		</g>
		<g>
			<circle fill="#FFFFFF" cx="1461.945" cy="395.1" r="159.648"/>
		</g>
		<g>
			<linearGradient id="SVGID_22_" gradientUnits="userSpaceOnUse" x1="1324.8467" y1="395.1006" x2="1599.042" y2="395.1006">
				<stop  offset="0" style="stop-color:#85FFAD"/>
				<stop  offset="0.5016" style="stop-color:#21ADFF"/>
				<stop  offset="1" style="stop-color:#6A20FF"/>
			</linearGradient>
			<circle fill="url(#SVGID_22_)" cx="1461.944" cy="395.1" r="137.098"/>
		</g>
		<g>
			<path fill="#FFFFFF" d="M1411.113,421.664h-4.963l0.271-9.113h5.955l1.263-10.468h-7.129l0.182-9.384h8.572l2.255-19.852h9.565
				l-2.346,19.852h7.038l2.257-19.852h9.474l-2.347,19.852h4.783l-0.271,9.384h-6.136l-1.174,10.468h7.129l-0.271,9.113h-8.121
				l-2.979,24.273h-9.384l2.888-24.273h-7.038l-2.888,24.273h-9.384L1411.113,421.664z M1428.889,412.551l1.264-10.468h-7.038
				l-1.354,10.468H1428.889z"/>
			<path fill="#FFFFFF" d="M1499.272,430.623v-90.912h-17.311c-1.488,1.574-3.869,3.301-7.147,5.18
				c-3.277,1.881-7.277,4.088-11.999,6.623v16.262c1.573-0.873,3.934-1.922,7.081-3.147c3.234-1.312,5.682-2.404,7.344-3.279v69.273
				h-18.753v15.314h18.753h22.032h18.718v-15.314H1499.272z"/>
		</g>
	</g>
</g>
</svg>
